<?xml version="1.0" encoding="UTF-8" standalone="no"?>
<!-- Created with Inkscape (http://www.inkscape.org/) -->

<svg
   width="75.791862mm"
   height="29.303696mm"
   viewBox="0 0 75.791862 29.303695"
   version="1.1"
   id="svg1"
   inkscape:version="1.3 (1:1.3+202307231459+0e150ed6c4)"
   sodipodi:docname="moh-logo-full-inkscape.svg"
   xmlns:inkscape="http://www.inkscape.org/namespaces/inkscape"
   xmlns:sodipodi="http://sodipodi.sourceforge.net/DTD/sodipodi-0.dtd"
   xmlns="http://www.w3.org/2000/svg"
   xmlns:svg="http://www.w3.org/2000/svg">
  <sodipodi:namedview
     id="namedview1"
     pagecolor="#ffffff"
     bordercolor="#666666"
     borderopacity="1.0"
     inkscape:showpageshadow="2"
     inkscape:pageopacity="0.0"
     inkscape:pagecheckerboard="0"
     inkscape:deskcolor="#d1d1d1"
     inkscape:document-units="mm"
     showguides="false"
     inkscape:zoom="1.0242632"
     inkscape:cx="437.87573"
     inkscape:cy="504.26491"
     inkscape:window-width="2511"
     inkscape:window-height="1011"
     inkscape:window-x="0"
     inkscape:window-y="32"
     inkscape:window-maximized="1"
     inkscape:current-layer="layer1">
    <sodipodi:guide
       position="40.84214,245.23595"
       orientation="0,-1"
       id="guide2"
       inkscape:locked="false" />
    <sodipodi:guide
       position="-252.60304,270.14271"
       orientation="0,-1"
       id="guide3"
       inkscape:locked="false" />
    <sodipodi:guide
       position="-181.21493,294.67377"
       orientation="0,-1"
       id="guide4"
       inkscape:locked="false" />
    <sodipodi:guide
       position="44.92048,282.99507"
       orientation="0,-1"
       id="guide5"
       inkscape:locked="false" />
    <sodipodi:guide
       position="39.434508,257.41177"
       orientation="0,-1"
       id="guide6"
       inkscape:locked="false" />
    <sodipodi:guide
       position="66.467719,165.71805"
       orientation="1,0"
       id="guide7"
       inkscape:locked="false" />
    <sodipodi:guide
       position="41.991703,334.85827"
       orientation="1,0"
       id="guide8"
       inkscape:locked="false" />
    <sodipodi:guide
       position="91.309049,348.74019"
       orientation="1,0"
       id="guide9"
       inkscape:locked="false" />
    <sodipodi:guide
       position="21.909666,366.31066"
       orientation="0,-1"
       id="guide10"
       inkscape:locked="false" />
    <sodipodi:guide
       position="33.066343,279.27793"
       orientation="1,0"
       id="guide11"
       inkscape:locked="false" />
    <sodipodi:guide
       position="75.727489,286.29072"
       orientation="1,0"
       id="guide12"
       inkscape:locked="false" />
  </sodipodi:namedview>
  <defs
     id="defs1" />
  <g
     inkscape:label="Layer 1"
     inkscape:groupmode="layer"
     id="layer1"
     transform="translate(-33.628221,-98.500334)">
    <path
       id="path9"
       style="fill:#d4ff2a;stroke:#88aa00;stroke-width:1.3037"
       d="m 62.280071,113.15218 a 14,14 0 0 1 -14,14 14,14 0 0 1 -14,-14 14,14 0 0 1 14,-13.999996 14,14 0 0 1 14,13.999996 z" />
    <path
       d="m 52.062191,110.72082 -2.053628,0.0606 -0.125934,-4.14419 -1.520842,4.22505 h -1.01713 l -1.491786,-4.22505 -0.135617,4.14419 -2.034254,-0.0606 0.34873,-7.10575 h 2.586408 l 1.249613,3.60847 1.268987,-3.60847 h 2.586408 z"
       id="text1"
       style="font-size:16.9333px;line-height:1.25;font-family:'Phinster Heavy';-inkscape-font-specification:'Phinster Heavy, ';fill:#d4ff2a;stroke:#4d4d4d;stroke-width:0.622341;stroke-dasharray:none"
       aria-label="M" />
    <path
       d="m 51.910783,121.37147 -2.673602,0.0685 v -3.18393 h -2.661394 v 3.11546 l -2.673604,0.0685 v -8.09107 l 2.673604,-0.0685 v 2.83017 h 2.661394 v -2.7617 l 2.673602,-0.0685 z"
       id="text2"
       style="font-size:21.477px;line-height:1.25;font-family:'Phinster Heavy';-inkscape-font-specification:'Phinster Heavy, ';fill:#d4ff2a;fill-opacity:1;stroke:#4d4d4d;stroke-width:0.632275;stroke-dasharray:none"
       aria-label="H" />
    <path
       id="path2"
       style="fill:#ffffff;stroke-width:0.716766"
       inkscape:transform-center-x="-0.64851061"
       d="m 54.057501,117.00285 v -5.62653 l 3.891067,2.81326 z" />
    <path
       id="path4"
       style="fill:#aad400;stroke-width:0.716766"
       inkscape:transform-center-x="-0.64851058"
       d="m 54.814536,115.30343 v -5.62654 l 3.891066,2.81327 z"
       inkscape:transform-center-y="-3.0209839e-06" />
    <path
       d="m 76.264886,112.08475 -2.243659,0.0635 -0.137583,-4.33916 -1.661578,4.42382 h -1.111247 l -1.629828,-4.42382 -0.148166,4.33916 -2.222493,-0.0635 0.380999,-7.44006 h 2.825741 l 1.365246,3.77824 1.386412,-3.77824 h 2.825741 z m 8.561878,0 -2.455326,0.0635 -0.423332,-1.15358 h -2.582325 l -0.455082,1.15358 -2.360076,-0.0635 2.899825,-7.44006 h 2.476492 z m -3.354906,-2.78341 -0.783164,-2.33891 -0.836081,2.33891 z m 11.175956,-0.93133 q 0,1.72508 -1.100663,2.71991 -1.100663,0.99483 -3.058573,0.99483 h -3.14324 v -7.44006 h 3.365489 q 1.788577,0 2.857491,1.01599 1.079496,1.00542 1.079496,2.70933 z m -2.317742,-0.0317 q 0,-0.79375 -0.571498,-1.24883 -0.571499,-0.45508 -1.534579,-0.45508 H 87.66308 v 3.46074 h 0.719665 q 0.941913,0 1.439328,-0.4445 0.507999,-0.45508 0.507999,-1.31233 z m 9.313287,1.77799 -0.179916,1.9685 h -5.820815 v -7.44006 h 5.693816 l 0.179916,1.94732 h -3.555989 v 0.85725 h 3.037407 v 1.79916 h -3.037407 v 0.86783 z"
       id="text10"
       style="font-size:10.5833px;line-height:1.25;font-family:'Phinster Heavy';-inkscape-font-specification:'Phinster Heavy, ';stroke-width:0.264583"
       aria-label="MADE" />
    <path
       d="m 73.973263,122.84995 -2.317743,0.0635 v -2.95274 h -2.307159 v 2.88924 l -2.317742,0.0635 v -7.50356 l 2.317742,-0.0635 v 2.62466 h 2.307159 v -2.56116 l 2.317743,-0.0635 z m 7.238976,-1.96849 -0.179916,1.96849 h -5.820815 v -7.44006 h 5.693816 l 0.179916,1.94733 h -3.555989 v 0.85725 h 3.037407 v 1.79916 h -3.037407 v 0.86783 z m 8.530138,1.96849 -2.455326,0.0635 -0.423332,-1.15358 h -2.582325 l -0.455082,1.15358 -2.360075,-0.0635 2.899824,-7.44006 h 2.476492 z m -3.354906,-2.78341 -0.783164,-2.3389 -0.836081,2.3389 z m 9.503795,0.77259 -0.169333,2.01082 h -5.450399 v -7.44006 l 2.317743,-0.0635 v 5.49274 z m 5.757314,-3.40783 h -1.989663 v 5.41865 l -2.317743,0.0635 v -5.48215 h -2.074326 l 0.201082,-2.02141 h 6.18065 z m 7.70464,5.41865 -2.31774,0.0635 v -2.95274 h -2.30716 v 2.88924 l -2.31775,0.0635 v -7.50356 l 2.31775,-0.0635 v 2.62466 h 2.30716 v -2.56116 l 2.31774,-0.0635 z"
       id="text11"
       style="font-size:10.5833px;line-height:1.25;font-family:'Phinster Heavy';-inkscape-font-specification:'Phinster Heavy, ';fill:#aad400;stroke-width:0.264583"
       aria-label="HEALTH" />
    <path
       d="m 105.9544,110.07398 q 0,0.92005 -0.62089,1.50143 -0.61525,0.57573 -1.59738,0.57573 -0.98778,0 -1.60866,-0.57573 -0.61525,-0.58138 -0.61525,-1.50143 0,-0.92568 0.61525,-1.50142 0.62088,-0.58137 1.60866,-0.58137 0.98213,0 1.59738,0.58137 0.62089,0.57574 0.62089,1.50142 z m -1.23049,0 q 0,-0.45719 -0.27093,-0.73942 -0.27094,-0.28222 -0.71685,-0.28222 -0.4572,0 -0.72813,0.28222 -0.26529,0.27658 -0.26529,0.73942 0,0.4572 0.27093,0.73943 0.27658,0.27657 0.72249,0.27657 0.44591,0 0.71685,-0.27657 0.27093,-0.27658 0.27093,-0.73943 z m 4.69617,-0.94826 h -1.70462 v 0.53622 h 1.4224 v 0.95956 h -1.4224 v 1.43368 l -1.23613,0.0339 v -4.00191 h 2.8448 z"
       id="text12"
       style="font-size:5.64444px;line-height:1.25;font-family:'Phinster Heavy';-inkscape-font-specification:'Phinster Heavy, ';stroke-width:0.264583"
       aria-label="OF" />
  </g>
</svg>
