<?xml version="1.0" standalone="no"?>
<!DOCTYPE svg PUBLIC "-//W3C//DTD SVG 20010904//EN"
 "http://www.w3.org/TR/2001/REC-SVG-20010904/DTD/svg10.dtd">
<svg version="1.0" xmlns="http://www.w3.org/2000/svg"
 width="112.000000pt" height="112.000000pt" viewBox="0 0 112.000000 112.000000"
 preserveAspectRatio="xMidYMid meet">
<metadata>
Created by potrace 1.14, written by Peter Selinger 2001-2017
</metadata>
<g transform="translate(0.000000,112.000000) scale(0.100000,-0.100000)"
fill="#000000" stroke="none">
<path d="M134 1101 c-52 -24 -92 -63 -115 -115 -17 -38 -18 -70 -16 -436 2
-432 1 -421 63 -484 63 -62 52 -61 484 -63 437 -3 438 -3 504 63 64 64 65 70
66 486 0 404 -2 425 -51 486 -13 17 -42 41 -64 54 -40 23 -41 23 -435 26 -368
2 -398 1 -436 -17z"/>
</g>
</svg>
